<?xml version="1.0" encoding="UTF-8"?>
<svg xmlns="http://www.w3.org/2000/svg" xmlns:xlink="http://www.w3.org/1999/xlink" width="29px" height="29px" viewBox="0 0 29 29" version="1.1">
<g id="surface1">
<path style="fill:none;stroke-width:1.5;stroke-linecap:round;stroke-linejoin:round;stroke:rgb(16.078431%,17.647059%,19.607843%);stroke-opacity:1;stroke-miterlimit:4;" d="M 2.001078 21.998922 L 21.998922 21.998922 " transform="matrix(1.208333,0,0,1.208333,0,0)"/>
<path style="fill:none;stroke-width:1.5;stroke-linecap:round;stroke-linejoin:round;stroke:rgb(16.078431%,17.647059%,19.607843%);stroke-opacity:1;stroke-miterlimit:4;" d="M 3.109914 21.998922 L 3.109914 12.998922 C 3.109914 11.340517 4.600216 9.998922 6.439655 9.998922 L 17.550647 9.998922 C 19.390086 9.998922 20.880388 11.340517 20.880388 12.998922 L 20.880388 21.998922 " transform="matrix(1.208333,0,0,1.208333,0,0)"/>
<path style="fill:none;stroke-width:1.5;stroke-linecap:round;stroke-linejoin:round;stroke:rgb(16.078431%,17.647059%,19.607843%);stroke-opacity:1;stroke-miterlimit:4;" d="M 5.560345 9.998922 L 5.560345 7.170259 C 5.560345 5.970905 6.640086 5.001078 7.978448 5.001078 L 16.03125 5.001078 C 17.359914 5.001078 18.439655 5.970905 18.439655 7.170259 L 18.439655 9.998922 " transform="matrix(1.208333,0,0,1.208333,0,0)"/>
<path style="fill:none;stroke-width:1.5;stroke-linecap:round;stroke-linejoin:round;stroke:rgb(16.078431%,17.647059%,19.607843%);stroke-opacity:1;stroke-miterlimit:4;" d="M 3.530172 13.978448 L 3.898707 13.991379 C 4.639009 14.001078 5.230603 14.599138 5.230603 15.33944 L 5.230603 15.669181 C 5.230603 16.409483 5.828664 17.020474 6.578664 17.020474 C 7.318966 17.020474 7.929957 16.419181 7.929957 15.669181 L 7.929957 15.358836 C 7.929957 14.618534 8.53125 14.010776 9.28125 14.010776 C 10.021552 14.010776 10.62931 14.608836 10.62931 15.358836 L 10.62931 15.669181 C 10.62931 16.409483 11.230603 17.020474 11.980603 17.020474 C 12.720905 17.020474 13.328664 16.419181 13.328664 15.669181 L 13.328664 15.358836 C 13.328664 14.618534 13.929957 14.010776 14.679957 14.010776 C 15.420259 14.010776 16.03125 14.608836 16.03125 15.358836 L 16.03125 15.669181 C 16.03125 16.409483 16.62931 17.020474 17.37931 17.020474 C 18.119612 17.020474 18.730603 16.419181 18.730603 15.669181 L 18.730603 15.358836 C 18.730603 14.618534 19.328664 14.010776 20.078664 14.010776 L 20.53125 14.010776 " transform="matrix(1.208333,0,0,1.208333,0,0)"/>
<path style="fill:none;stroke-width:1.5;stroke-linecap:round;stroke-linejoin:round;stroke:rgb(16.078431%,17.647059%,19.607843%);stroke-opacity:1;stroke-miterlimit:4;" d="M 8.001078 5.001078 L 8.001078 3 " transform="matrix(1.208333,0,0,1.208333,0,0)"/>
<path style="fill:none;stroke-width:1.5;stroke-linecap:round;stroke-linejoin:round;stroke:rgb(16.078431%,17.647059%,19.607843%);stroke-opacity:1;stroke-miterlimit:4;" d="M 15.998922 5.001078 L 15.998922 3 " transform="matrix(1.208333,0,0,1.208333,0,0)"/>
<path style="fill:none;stroke-width:1.5;stroke-linecap:round;stroke-linejoin:round;stroke:rgb(16.078431%,17.647059%,19.607843%);stroke-opacity:1;stroke-miterlimit:4;" d="M 12 5.001078 L 12 2.001078 " transform="matrix(1.208333,0,0,1.208333,0,0)"/>
</g>
</svg>
