<svg width="29" height="25" viewBox="0 0 29 25" fill="none" xmlns="http://www.w3.org/2000/svg">
<path d="M24.3499 9.55153H22.736C22.5704 9.55153 22.4228 9.46224 22.3776 9.33412C22.2947 9.10247 22.2002 8.87729 22.0967 8.65988C22.0424 8.54471 22.0825 8.38035 22.1925 8.27035L23.3443 7.11859C23.9862 6.47412 23.9862 5.42718 23.343 4.784L22.2171 3.65812C21.5726 3.01365 20.5256 3.01365 19.8811 3.65812L18.7305 4.80859C18.6205 4.91859 18.46 4.96 18.341 4.90435C18.1222 4.80082 17.8971 4.70765 17.6667 4.62482C17.5373 4.57824 17.448 4.43071 17.448 4.26506V2.65129C17.448 1.74024 16.7077 1 15.7966 1H14.2047C13.2936 1 12.5533 1.74024 12.5533 2.65129V4.26506C12.5533 4.43071 12.464 4.57824 12.3359 4.62353C12.1042 4.70635 11.8791 4.80082 11.6616 4.90435C11.5477 4.95482 11.3821 4.91859 11.2721 4.80859L10.1202 3.65941C9.47573 3.01494 8.42873 3.01494 7.78422 3.65941L6.65827 4.78529C6.01506 5.42847 6.01506 6.47541 6.65827 7.12118L7.80881 8.27165C7.91882 8.38165 7.95894 8.546 7.90458 8.66118C7.80105 8.87988 7.70786 9.10506 7.62504 9.33541C7.57845 9.46482 7.43091 9.55412 7.26525 9.55412H5.65139C4.74028 9.55412 4 10.2944 4 11.2054V12.7972C4 13.7082 4.74028 14.4485 5.65139 14.4485H7.26525C7.43091 14.4485 7.57845 14.5378 7.62374 14.6659C7.70657 14.8975 7.80105 15.1227 7.90458 15.3401C7.95894 15.4553 7.91882 15.6196 7.80881 15.7296L6.65827 16.8801C6.01377 17.5233 6.01377 18.5728 6.65827 19.216L7.78422 20.3419C8.42873 20.9864 9.47573 20.9864 10.1202 20.3419L11.2708 19.1914C11.3808 19.0814 11.5426 19.0413 11.6603 19.0956C11.8791 19.1992 12.1042 19.2924 12.3346 19.3752C12.464 19.4218 12.5533 19.5693 12.5533 19.7349V21.3487C12.5533 22.2598 13.2936 23 14.2047 23H15.7966C16.7077 23 17.448 22.2598 17.448 21.3487V19.7349C17.448 19.5693 17.5373 19.4218 17.6654 19.3765C17.8971 19.2936 18.1222 19.1992 18.3397 19.0956C18.4548 19.0452 18.6192 19.0814 18.7292 19.1914L19.8798 20.3419C20.5243 20.9864 21.5713 20.9864 22.2158 20.3419L23.3417 19.216C23.9862 18.5728 23.9862 17.5233 23.3417 16.8801L22.1912 15.7296C22.0812 15.6196 22.0411 15.4553 22.0954 15.3401C22.199 15.1214 22.2921 14.8962 22.375 14.6659C22.4216 14.5365 22.5691 14.4472 22.7347 14.4472H24.3486C25.2597 14.4472 26 13.7069 26 12.7959V11.2041C26.0013 10.2931 25.261 9.55153 24.3499 9.55153ZM24.7071 12.7959C24.7071 12.9926 24.5466 13.1531 24.3499 13.1531H22.736C22.0255 13.1531 21.3914 13.584 21.1584 14.2272C21.0898 14.4174 21.0122 14.6051 20.9255 14.7888C20.6369 15.4009 20.7792 16.1464 21.2762 16.6446L22.4267 17.7951C22.5652 17.9335 22.5652 18.1613 22.4267 18.3011L21.3008 19.4269C21.1623 19.5654 20.9345 19.5654 20.7948 19.4269L19.6442 18.2765C19.1459 17.7782 18.3992 17.6359 17.7883 17.9258C17.6046 18.0112 17.4182 18.0901 17.2254 18.16C16.5834 18.3916 16.1525 19.0258 16.1525 19.7362V21.35C16.1525 21.5467 15.992 21.7072 15.7953 21.7072H14.2034C14.0067 21.7072 13.8462 21.5467 13.8462 21.35V19.7362C13.8462 19.0258 13.4153 18.3916 12.772 18.1587C12.5818 18.0901 12.3941 18.0125 12.2104 17.9258C11.9994 17.8261 11.7716 17.7782 11.5439 17.7782C11.1129 17.7782 10.6806 17.9516 10.3545 18.2778L9.20395 19.4282C9.06547 19.5667 8.8377 19.5667 8.69792 19.4282L7.57197 18.3024C7.4335 18.1639 7.4335 17.9361 7.57197 17.7964L8.72251 16.6459C9.22078 16.1476 9.36184 15.4022 9.07324 14.7901C8.98782 14.6064 8.90888 14.42 8.83899 14.2272C8.60733 13.5853 7.97317 13.1544 7.26266 13.1544H5.65139C5.45467 13.1544 5.29419 12.9939 5.29419 12.7972V11.2054C5.29419 11.0087 5.45467 10.8482 5.65139 10.8482H7.26525C7.97576 10.8482 8.60992 10.4173 8.84287 9.77412C8.91146 9.58388 8.98912 9.39624 9.07583 9.21247C9.36443 8.60035 9.22207 7.85494 8.7251 7.35671L7.57586 6.20623C7.43479 6.06647 7.43479 5.83871 7.57456 5.70024L8.70051 4.57435C8.83899 4.43588 9.06677 4.43588 9.20654 4.57435L10.3558 5.72353C10.854 6.22176 11.6008 6.36412 12.2117 6.07423C12.3954 5.98882 12.5818 5.90988 12.7746 5.84C13.4166 5.60835 13.8475 4.97424 13.8475 4.26376V2.65129C13.8475 2.45459 14.008 2.29412 14.2047 2.29412H15.7966C15.9933 2.29412 16.1538 2.45459 16.1538 2.65129V4.26506C16.1538 4.97553 16.5847 5.60965 17.228 5.84259C17.4182 5.91118 17.6059 5.98882 17.7896 6.07553C18.4005 6.36541 19.1472 6.22177 19.6455 5.72482L20.796 4.57435C20.9345 4.43588 21.1623 4.43588 21.3021 4.57435L22.428 5.70024C22.5665 5.83871 22.5665 6.06647 22.428 6.20623L21.2775 7.35541C20.7792 7.85365 20.6382 8.59906 20.9268 9.21118C21.0122 9.39494 21.0911 9.58129 21.161 9.77412C21.3927 10.416 22.0268 10.8469 22.7373 10.8469H24.3512C24.5479 10.8469 24.7084 11.0074 24.7084 11.2041V12.7959H24.7071Z" fill="#29231F" stroke="#29231F" stroke-width="0.2"/>
<path d="M15.0002 9.10522C13.4035 9.10522 12.1055 10.4032 12.1055 12C12.1055 13.5967 13.4035 14.8947 15.0002 14.8947C16.597 14.8947 17.8949 13.5967 17.8949 12C17.8949 10.4032 16.597 9.10522 15.0002 9.10522ZM15.0002 13.7757C14.0211 13.7757 13.2244 12.979 13.2244 12C13.2244 11.0209 14.0211 10.2242 15.0002 10.2242C15.9793 10.2242 16.776 11.0209 16.776 12C16.776 12.979 15.9793 13.7757 15.0002 13.7757Z" fill="#29231F" stroke="#29231F" stroke-width="0.2"/>
</svg>