<svg width="29" height="25" viewBox="0 0 29 25" fill="none" xmlns="http://www.w3.org/2000/svg">
<path d="M6.47694 5.23155C6.47694 5.05053 6.55118 4.87693 6.68333 4.74892C6.81547 4.62092 6.9947 4.54901 7.18158 4.54901H18.8969C19.0838 4.54901 19.2631 4.62092 19.3952 4.74892C19.5273 4.87693 19.6016 5.05053 19.6016 5.23155C19.6016 5.41258 19.5273 5.58618 19.3952 5.71419C19.2631 5.84219 19.0838 5.9141 18.8969 5.9141H7.18158C6.9947 5.9141 6.81547 5.84219 6.68333 5.71419C6.55118 5.58618 6.47694 5.41258 6.47694 5.23155ZM7.18158 9.91648H18.8969C19.0838 9.91648 19.2631 9.84457 19.3952 9.71657C19.5273 9.58857 19.6016 9.41496 19.6016 9.23394C19.6016 9.05292 19.5273 8.87931 19.3952 8.75131C19.2631 8.62331 19.0838 8.5514 18.8969 8.5514H7.18158C6.9947 8.5514 6.81547 8.62331 6.68333 8.75131C6.55118 8.87931 6.47694 9.05292 6.47694 9.23394C6.47694 9.41496 6.55118 9.58857 6.68333 9.71657C6.81547 9.84457 6.9947 9.91648 7.18158 9.91648ZM7.18158 13.9184H18.8969C19.0838 13.9184 19.2631 13.8465 19.3952 13.7185C19.5273 13.5905 19.6016 13.4169 19.6016 13.2359C19.6016 13.0549 19.5273 12.8812 19.3952 12.7532C19.2631 12.6252 19.0838 12.5533 18.8969 12.5533H7.18158C6.9947 12.5533 6.81547 12.6252 6.68333 12.7532C6.55118 12.8812 6.47694 13.0549 6.47694 13.2359C6.47694 13.4169 6.55118 13.5905 6.68333 13.7185C6.81547 13.8465 6.9947 13.9184 7.18158 13.9184ZM15.6143 16.5553H7.18158C6.9947 16.5553 6.81547 16.6272 6.68333 16.7552C6.55118 16.8832 6.47694 17.0568 6.47694 17.2378C6.47694 17.4188 6.55118 17.5924 6.68333 17.7204C6.81547 17.8484 6.9947 17.9203 7.18158 17.9203H15.6143C15.8012 17.9203 15.9804 17.8484 16.1126 17.7204C16.2447 17.5924 16.319 17.4188 16.319 17.2378C16.319 17.0568 16.2447 16.8832 16.1126 16.7552C15.9804 16.6272 15.8012 16.5553 15.6143 16.5553ZM27 20.018C27.0009 21.1183 26.6254 22.1879 25.9322 23.0596C25.239 23.9313 24.2673 24.556 23.1688 24.836C22.0703 25.1161 20.9069 25.0358 19.8605 24.6076C18.8142 24.1794 17.9437 23.4274 17.3853 22.4693H5.99295C4.93434 22.4681 3.91943 22.0602 3.17088 21.3351C2.42233 20.6101 2.00124 19.627 2 18.6016V3.86774C2.00124 2.84232 2.42233 1.85925 3.17088 1.13417C3.91943 0.409084 4.93434 0.00120425 5.99295 0H20.0857C21.1443 0.00120425 22.1592 0.409084 22.9078 1.13417C23.6563 1.85925 24.0774 2.84232 24.0787 3.86774V15.5324C24.9522 15.9378 25.6899 16.574 26.2067 17.3675C26.7235 18.1611 26.9985 19.0799 27 20.0182V20.018ZM16.8412 21.1042C16.6518 20.3104 16.6675 19.4835 16.887 18.697C17.1064 17.9105 17.5228 17.1885 18.0993 16.5952C18.6757 16.0018 19.3944 15.5554 20.1916 15.2955C20.9888 15.0356 21.8399 14.9702 22.6694 15.1052V3.86779C22.6685 3.20429 22.3961 2.56821 21.9117 2.09905C21.4274 1.62989 20.7707 1.36595 20.0857 1.36513H5.99295C5.30797 1.36593 4.65128 1.62985 4.16692 2.09902C3.68257 2.56819 3.4101 3.20429 3.40928 3.86779V18.6016C3.4101 19.2651 3.68257 19.9012 4.16692 20.3704C4.65128 20.8396 5.30797 21.1035 5.99295 21.1043L16.8412 21.1042ZM25.5907 20.0182C25.5907 19.3029 25.3717 18.6037 24.9614 18.009C24.5511 17.4143 23.968 16.9508 23.2858 16.6771C22.6035 16.4034 21.8528 16.3319 21.1286 16.4714C20.4044 16.611 19.7391 16.9555 19.217 17.4613C18.6949 17.9671 18.3393 18.6115 18.1953 19.3131C18.0513 20.0146 18.1253 20.7417 18.4079 21.4026C18.6905 22.0634 19.1691 22.6282 19.7831 23.0255C20.3971 23.4229 21.119 23.6349 21.8574 23.6349C22.8473 23.6337 23.7962 23.2523 24.4961 22.5743C25.196 21.8963 25.5897 20.977 25.5907 20.0182ZM23.6516 19.3357H22.562V18.0206C22.562 17.8396 22.4878 17.666 22.3557 17.538C22.2235 17.41 22.0443 17.3381 21.8574 17.3381C21.6705 17.3381 21.4913 17.41 21.3592 17.538C21.227 17.666 21.1528 17.8396 21.1528 18.0206V20.0182C21.1528 20.1992 21.227 20.3728 21.3592 20.5008C21.4913 20.6288 21.6705 20.7008 21.8574 20.7008H23.6516C23.8384 20.7008 24.0177 20.6288 24.1498 20.5008C24.282 20.3728 24.3562 20.1992 24.3562 20.0182C24.3562 19.8372 24.282 19.6636 24.1498 19.5356C24.0177 19.4076 23.8384 19.3357 23.6516 19.3357Z" fill="#29231F"/>
</svg>
