<?xml version="1.0" encoding="UTF-8"?>
<svg xmlns="http://www.w3.org/2000/svg" xmlns:xlink="http://www.w3.org/1999/xlink" width="29px" height="29px" viewBox="0 0 29 29" version="1.1">
<g id="surface1">
<path style=" stroke:none;fill-rule:nonzero;fill:rgb(0%,0%,0%);fill-opacity:1;" d="M 19.417969 3.992188 C 19.816406 3.125 20.222656 2.273438 20.644531 1.363281 C 15.972656 -0.601562 11.421875 -0.507812 7.074219 2.085938 C 2.871094 4.585938 0.589844 8.386719 0 13.28125 C 0.996094 13.371094 1.941406 13.453125 2.886719 13.53125 C 3.402344 6.136719 11.578125 0.460938 19.417969 3.992188 Z M 19.417969 3.992188 "/>
<path style=" stroke:none;fill-rule:nonzero;fill:rgb(0%,0%,0%);fill-opacity:1;" d="M 28.792969 12.027344 C 27.855469 12.1875 26.921875 12.351562 25.949219 12.519531 C 26.453125 15.90625 25.75 18.957031 23.683594 21.632812 C 21.628906 24.292969 18.871094 25.753906 15.503906 26.132812 C 15.585938 27.085938 15.671875 28.015625 15.746094 28.949219 C 22.800781 28.699219 30.355469 21.617188 28.792969 12.027344 Z M 28.792969 12.027344 "/>
<path style=" stroke:none;fill-rule:nonzero;fill:rgb(0%,0%,0%);fill-opacity:1;" d="M 2.84375 15.570312 C 1.949219 15.644531 1.015625 15.726562 0.0820312 15.804688 C 0.304688 21.714844 5.460938 28.371094 13.234375 29 C 13.316406 28.042969 13.402344 27.101562 13.480469 26.195312 C 7.394531 25.179688 3.875 21.65625 2.84375 15.570312 Z M 2.84375 15.570312 "/>
<path style=" stroke:none;fill-rule:nonzero;fill:rgb(0%,0%,0%);fill-opacity:1;" d="M 23.695312 7.457031 C 24.421875 8.394531 24.980469 9.429688 25.414062 10.570312 C 26.316406 10.246094 27.207031 9.917969 28.140625 9.578125 C 27.0625 6.714844 25.3125 4.4375 22.824219 2.644531 C 22.269531 3.4375 21.722656 4.210938 21.160156 5.015625 C 22.121094 5.722656 22.976562 6.523438 23.695312 7.457031 Z M 23.695312 7.457031 "/>
<path style=" stroke:none;fill-rule:nonzero;fill:rgb(0%,0%,0%);fill-opacity:1;" d="M 15.871094 22.820312 L 15.871094 21.6875 C 16.839844 21.5 17.78125 21.117188 18.621094 20.535156 L 19.429688 21.34375 C 19.734375 21.636719 20.214844 21.636719 20.519531 21.34375 L 21.355469 20.503906 C 21.652344 20.199219 21.652344 19.71875 21.355469 19.417969 L 20.535156 18.597656 C 21.105469 17.753906 21.480469 16.816406 21.660156 15.855469 L 22.824219 15.855469 C 23.246094 15.855469 23.589844 15.507812 23.589844 15.085938 L 23.589844 13.898438 C 23.589844 13.476562 23.246094 13.132812 22.824219 13.132812 L 21.652344 13.132812 C 21.46875 12.171875 21.089844 11.242188 20.519531 10.402344 L 21.347656 9.574219 C 21.648438 9.269531 21.648438 8.789062 21.347656 8.488281 L 20.5 7.644531 C 20.195312 7.34375 19.714844 7.34375 19.414062 7.644531 L 18.582031 8.472656 C 17.742188 7.902344 16.8125 7.527344 15.847656 7.339844 L 15.847656 6.171875 C 15.847656 5.75 15.503906 5.40625 15.082031 5.40625 L 13.894531 5.40625 C 13.472656 5.40625 13.128906 5.75 13.128906 6.171875 L 13.128906 7.335938 C 12.164062 7.511719 11.226562 7.894531 10.382812 8.464844 L 9.570312 7.652344 C 9.265625 7.359375 8.785156 7.359375 8.484375 7.652344 L 7.644531 8.5 C 7.347656 8.800781 7.347656 9.285156 7.644531 9.582031 L 8.453125 10.394531 C 7.871094 11.238281 7.492188 12.175781 7.304688 13.144531 L 6.171875 13.144531 C 5.75 13.144531 5.40625 13.488281 5.40625 13.910156 L 5.40625 15.097656 C 5.40625 15.519531 5.75 15.863281 6.171875 15.863281 L 7.300781 15.863281 C 7.484375 16.839844 7.863281 17.785156 8.441406 18.628906 L 7.65625 19.429688 C 7.359375 19.734375 7.359375 20.214844 7.65625 20.515625 L 8.496094 21.351562 C 8.796875 21.648438 9.277344 21.648438 9.582031 21.351562 L 10.378906 20.558594 C 11.226562 21.132812 12.171875 21.515625 13.144531 21.699219 L 13.144531 22.828125 C 13.144531 23.25 13.492188 23.59375 13.914062 23.59375 L 15.101562 23.59375 C 15.527344 23.585938 15.871094 23.242188 15.871094 22.820312 Z M 11.703125 17.300781 C 10.15625 15.757812 10.152344 13.25 11.695312 11.703125 C 13.242188 10.164062 15.746094 10.15625 17.292969 11.699219 C 18.835938 13.246094 18.84375 15.75 17.296875 17.296875 C 15.757812 18.839844 13.253906 18.84375 11.703125 17.300781 Z M 11.703125 17.300781 "/>
</g>
</svg>
