<svg width="1773" height="28" viewBox="0 0 1773 28" fill="none" xmlns="http://www.w3.org/2000/svg">
<path d="M1629.07 0C1689.63 0 1710.08 16 1773 16V28L1180.76 28V16C1252.33 16 1257.05 0 1323.12 0C1389.18 0 1398.62 16 1480.42 16C1539.41 16 1568.51 0 1629.07 0Z" fill="#F0F0F0"/>
<path d="M1039.19 0C1099.75 0 1120.2 16 1183.12 16V28L590.88 28V16C662.452 16 667.171 0 733.238 0C799.304 0 808.742 16 890.539 16C949.527 16 978.628 0 1039.19 0Z" fill="#F0F0F0"/>
<path d="M448.884 0C509.523 0 529.999 16 593 16V28L0 28V16C71.664 16 76.3891 0 142.54 0C208.692 0 218.142 16 300.044 16C359.108 16 388.246 0 448.884 0Z" fill="#F0F0F0"/>
</svg>
