<?xml version="1.0" encoding="utf-8"?>
<!-- Generator: Adobe Illustrator 27.9.0, SVG Export Plug-In . SVG Version: 6.00 Build 0)  -->
<svg version="1.1" id="Шар_1" xmlns="http://www.w3.org/2000/svg" xmlns:xlink="http://www.w3.org/1999/xlink" x="0px" y="0px"
	 viewBox="0 0 800 800" style="enable-background:new 0 0 800 800;" xml:space="preserve">
<g id="SVGRepo_bgCarrier">
</g>
<g id="SVGRepo_tracerCarrier">
</g>
<g id="SVGRepo_iconCarrier">
	<path d="M691.5,111c-13-13-34.1-13-47.1,0L401.2,354.1L158.1,111c-13-13-34.1-13-47.1,0c-13,13-13,34.1,0,47.1l243.1,243.1
		L111,644.4c-13,13-13,34.1,0,47.1c13,13,34.1,13,47.1,0l243.1-243.1l243.1,243.1c13,13,34.1,13,47.1,0c13-13,13-34.1,0-47.1
		L448.4,401.2l243.1-243.1C704.5,145.1,704.5,124,691.5,111z"/>
</g>
</svg>
