<?xml version="1.0" encoding="utf-8"?>
<!-- Generator: Adobe Illustrator 27.9.0, SVG Export Plug-In . SVG Version: 6.00 Build 0)  -->
<svg version="1.1" id="Шар_1" xmlns="http://www.w3.org/2000/svg" xmlns:xlink="http://www.w3.org/1999/xlink" x="0px" y="0px"
	 viewBox="0 0 800 800" style="enable-background:new 0 0 800 800;" xml:space="preserve">
<style type="text/css">
	.st0{fill-rule:evenodd;clip-rule:evenodd;}
</style>
<g id="SVGRepo_bgCarrier">
</g>
<g id="SVGRepo_tracerCarrier">
</g>
<g id="SVGRepo_iconCarrier">
	<path class="st0" d="M760,160c0,22.1-17.9,40-40,40H80c-22.1,0-40-17.9-40-40s17.9-40,40-40h640C742.1,120,760,137.9,760,160z
		 M760,400c0,22.1-17.9,40-40,40H80c-22.1,0-40-17.9-40-40s17.9-40,40-40h640C742.1,360,760,377.9,760,400z M720,680
		c22.1,0,40-17.9,40-40c0-22.1-17.9-40-40-40H80c-22.1,0-40,17.9-40,40c0,22.1,17.9,40,40,40H720z"/>
</g>
</svg>
