<?xml version="1.0" encoding="utf-8"?>
<!-- Generator: Adobe Illustrator 27.9.0, SVG Export Plug-In . SVG Version: 6.00 Build 0)  -->
<svg version="1.1" id="Шар_1" xmlns="http://www.w3.org/2000/svg" xmlns:xlink="http://www.w3.org/1999/xlink" x="0px" y="0px"
	 viewBox="0 0 800 800" style="enable-background:new 0 0 800 800;" xml:space="preserve">
<style type="text/css">
	.st0{fill-rule:evenodd;clip-rule:evenodd;}
</style>
<g id="SVGRepo_bgCarrier">
</g>
<g id="SVGRepo_tracerCarrier">
</g>
<g id="SVGRepo_iconCarrier">
	<g id="Page-1">
		<g id="Dribbble-Light-Preview" transform="translate(-259.000000, -280.000000)">
			<g id="icons" transform="translate(56.000000, 160.000000)">
				<path id="search_x5F_right-_x5B__x23_1505_x5D_" class="st0" d="M372.7,685.4l56.6,53.9L259.6,901L203,847.1L372.7,685.4z
					 M683,672.4c-132.3,0-240-102.6-240-228.6c0-126.1,107.7-228.6,240-228.6c132.4,0,240,102.5,240,228.6
					C923,569.8,815.4,672.4,683,672.4L683,672.4z M683,139c-176.7,0-320,136.5-320,304.8s143.3,304.8,320,304.8
					c176.8,0,320-136.5,320-304.8S859.8,139,683,139L683,139z"/>
			</g>
		</g>
	</g>
</g>
</svg>
