<svg width="26" height="26" viewBox="0 0 26 26" fill="none" xmlns="http://www.w3.org/2000/svg">
<g clip-path="url(#clip0_878_2740)">
<path d="M1.69727 5.52325H24.3019V21.8121C24.3019 22.599 24.0726 23.3537 23.6643 23.9101C23.2561 24.4665 22.7024 24.7791 22.1251 24.7791H3.87183C3.29489 24.7783 2.74179 24.4653 2.33404 23.909C1.9263 23.3527 1.69727 22.5985 1.69727 21.8121V5.52325Z" stroke="#282728" stroke-width="1.7" stroke-linecap="round" stroke-linejoin="round"/>
<mask id="path-2-inside-1_878_2740" fill="white">
<rect x="5.88281" y="8.87207" width="14.2326" height="11.7209" rx="1"/>
</mask>
<rect x="5.88281" y="8.87207" width="14.2326" height="11.7209" rx="1" stroke="#282728" stroke-width="3.4" mask="url(#path-2-inside-1_878_2740)"/>
<mask id="path-3-inside-2_878_2740" fill="white">
<path d="M7.55859 1.5C7.55859 0.947716 8.00631 0.5 8.55859 0.5H17.4423C17.9946 0.5 18.4423 0.947715 18.4423 1.5V6.36047H7.55859V1.5Z"/>
</mask>
<path d="M7.55859 1.5C7.55859 0.947716 8.00631 0.5 8.55859 0.5H17.4423C17.9946 0.5 18.4423 0.947715 18.4423 1.5V6.36047H7.55859V1.5Z" stroke="#282728" stroke-width="3.4" mask="url(#path-3-inside-2_878_2740)"/>
</g>
<defs>
<clipPath id="clip0_878_2740">
<rect width="26" height="26" fill="white"/>
</clipPath>
</defs>
</svg>
