<svg width="26" height="26" viewBox="0 0 26 26" fill="none" xmlns="http://www.w3.org/2000/svg">
<path d="M15.0583 16.6292V4.17084H13.975V16.6292C12.5125 16.9 11.375 18.2 11.375 19.7167C11.375 21.45 12.7833 22.8583 14.5167 22.8583C16.25 22.8583 17.6583 21.45 17.6583 19.7167C17.6583 18.2 16.5208 16.9 15.0583 16.6292ZM14.5167 21.8292C13.3792 21.8292 12.4583 20.9083 12.4583 19.7708C12.4583 18.6333 13.3792 17.7125 14.5167 17.7125C15.6542 17.7125 16.575 18.6333 16.575 19.7708C16.575 20.9083 15.6542 21.8292 14.5167 21.8292Z" fill="black"/>
<path d="M14.5169 0.270844C12.7836 0.270844 11.3753 1.67918 11.3753 3.41251V14.6792C9.64193 15.7625 8.55859 17.6583 8.55859 19.7708C8.55859 23.075 11.2128 25.7292 14.5169 25.7292C17.8211 25.7292 20.4753 23.075 20.4753 19.7708C20.4753 17.7125 19.3919 15.7625 17.6586 14.6792V13.9208H19.9336V12.8375H17.6586V10.8333H19.9336V9.75001H17.6586V7.74584H19.9336V6.66251H17.6586V4.71251H19.9336V3.62918H17.6586V3.41251C17.6586 1.67918 16.2503 0.270844 14.5169 0.270844ZM19.3919 19.7708C19.3919 22.4792 17.2253 24.6458 14.5169 24.6458C11.8086 24.6458 9.64193 22.4792 9.64193 19.7708C9.64193 17.9833 10.6169 16.3583 12.1878 15.4917L12.4586 15.3292V3.41251C12.4586 2.27501 13.3794 1.35418 14.5169 1.35418C15.6544 1.35418 16.5753 2.27501 16.5753 3.41251V15.3292L16.8461 15.4917C18.4169 16.3583 19.3919 17.9833 19.3919 19.7708Z" fill="black"/>
<path d="M7.25872 2.92502V4.71252H5.52539V5.79585H7.25872V7.52918H8.34206V5.79585H10.1296V4.71252H8.34206V2.92502H7.25872Z" fill="black"/>
</svg>
